Cop out  
http://www.imdb.com/title/tt1385867/


Source  :

Cop.Out.DVDR-BOW


Info:

ID                               : 1
Format                           : AVC
Format/Info                      : Advanced Video Codec
Format profile                   : Baseline@L2.0
Format settings, CABAC           : No
Format settings, ReFrames        : 3 frames
Codec ID                         : avc1
Codec ID/Info                    : Advanced Video Coding
Duration                         : 1h 47mn
Bit rate mode                    : Variable
Bit rate                         : 400 Kbps
Width                            : 480 pixels
Height                           : 208 pixels
Display aspect ratio             : 2.35:1
Frame rate mode                  : Variable
Frame rate                       : 23.976 fps
Minimum frame rate               : 6.660 fps
Maximum frame rate               : 29.970 fps
Color space                      : YUV
Chroma subsampling               : 4:2:0
Bit depth                        : 8 bits
Scan type                        : Progressive
Bits/(Pixel*Frame)               : 0.167
Stream size                      : 307 MiB (75%)
Writing library                  : x264 core 79

ID                               : 2
Format                           : AAC
Format/Info                      : Advanced Audio Codec
Format version                   : Version 4
Format profile                   : LC
Format settings, SBR             : No
Codec ID                         : 40
Duration                         : 1h 47mn
Bit rate mode                    : Variable
Bit rate                         : 128 Kbps
Maximum bit rate                 : 197 Kbps
Channel(s)                       : 2 channels
Channel positions                : Front: L R
Sampling rate                    : 48.0 KHz
Stream size                      : 98.3 MiB (24%)
Language                         : English


Screens : 
http://img175.imageshack.us/img175/3608/vlcsnap00012z.png 
http://img52.imageshack.us/img52/17/vlcsnap00013v.png 
http://img375.imageshack.us/img375/8198/vlcsnap00014.png 
http://img813.imageshack.us/img813/2527/vlcsnap00015.png 
http://img94.imageshack.us/img94/1200/vlcsnap00016e.png 
http://img541.imageshack.us/img541/7812/vlcsnap00017.png 
http://img80.imageshack.us/img80/2160/vlcsnap00018h.png 
http://img197.imageshack.us/img197/4411/vlcsnap00019d.png



PLEASE LET THE TORRENT SEED AND SHARE IT WITH ALL YOU KNOW!

Let me know what I can do to be your trusted source of Handheld videos. 
http://thepiratebay.org/user/on.off.on/ -OOO